# xmcd
#
# Track frame offsets: 
#        150
#        24125
#        48642
#        76497
#        94885
#        114272
#        145785
#        173240
#        203577
#        253580
#        285297
#
# Disc length: 4349 seconds
#
# Revision: 0
# Processed by: cddbd v1.5.2PL0 Copyright (c) Steve Scherf et al.
# Submitted via: ExactAudioCopy v0.99pb5
#
DISCID=8810fb0b
DTITLE=Eric Clapton  - Superman In Europe - Disc 2 (021401)
DYEAR=1900
DGENRE=
TTITLE0=Got You On My Mind
TTITLE1=I Ain't Gonna Stand For It
TTITLE2=Don't Let Me Be Lonely Tonight
TTITLE3=Travelin' Light
TTITLE4=Hoochie Coochie Man
TTITLE5=Have You Ever Loved A Woman
TTITLE6=Badge
TTITLE7=Wonderful Tonight
TTITLE8=Layla
TTITLE9=Sunshine Of Your Love
TTITLE10=Somewhere Over The Rainbow
EXTD=
EXTT0=
EXTT1=
EXTT2=
EXTT3=
EXTT4=
EXTT5=
EXTT6=
EXTT7=
EXTT8=
EXTT9=
EXTT10=
PLAYORDER=
